<svg width="24" height="24" viewBox="0 0 24 24" fill="none" xmlns="http://www.w3.org/2000/svg">
<g clip-path="url(#clip0_1_125)">
<path d="M19 16.08C18.24 16.08 17.56 16.38 17.04 16.85L9.91 12.7C9.96 12.47 10 12.24 10 12C10 11.76 9.96 11.53 9.91 11.3L16.96 7.19C17.5 7.69 18.21 8 19 8C20.66 8 22 6.66 22 5C22 3.34 20.66 2 19 2C17.34 2 16 3.34 16 5C16 5.24 16.04 5.47 16.09 5.7L9.04 9.81C8.5 9.31 7.79 9 7 9C5.34 9 4 10.34 4 12C4 13.66 5.34 15 7 15C7.79 15 8.5 14.69 9.04 14.19L16.16 18.35C16.11 18.56 16.08 18.78 16.08 19C16.08 20.61 17.39 21.92 19 21.92C20.61 21.92 21.92 20.61 21.92 19C21.92 17.39 20.61 16.08 19 16.08Z" fill="#356EAD"/>
</g>
<defs>
<clipPath id="clip0_1_125">
<rect width="24" height="24" fill="white"/>
</clipPath>
</defs>
</svg>
